<svg width="65" height="65" viewBox="0 0 65 65" fill="none" xmlns="http://www.w3.org/2000/svg">
<g clip-path="url(#clip0)">
<path d="M64.9652 40.6787C64.8033 36.9545 64.1556 32.8256 63.184 28.9395C62.2125 25.2153 60.9981 21.734 59.5408 19.0623C53.8736 9.10419 47.7206 10.6424 40.3532 12.5855C38.0054 13.1522 35.4956 13.7999 32.9049 14.0428H32.0953C29.5046 13.7999 26.9948 13.1522 24.6469 12.5855C17.2795 10.7234 11.1266 9.10419 5.45934 19.1433C4.00205 21.815 2.70669 25.2963 1.81613 29.0204C0.844601 32.9065 0.196919 37.0355 0.034998 40.7597C-0.126923 44.8887 0.277879 47.8842 1.16844 49.9892C2.05901 51.9322 3.35437 53.1466 5.05454 53.6324C6.59278 54.0372 8.37391 53.8752 10.236 53.0656C13.3935 51.7703 17.0367 49.0176 20.5989 45.6983C23.1087 43.2694 27.8044 42.055 32.5001 42.055C37.1958 42.055 41.8915 43.2694 44.4013 45.6983C47.9635 49.0176 51.6067 51.7703 54.7642 53.0656C56.6263 53.7943 58.4074 54.0372 59.9456 53.6324C61.5648 53.1466 62.9412 52.0132 63.8317 49.9082C64.7223 47.8842 65.1271 44.8887 64.9652 40.6787ZM61.0791 48.7747C60.5933 49.9082 59.9456 50.5559 59.136 50.7988C58.2455 51.0416 57.112 50.8797 55.8167 50.394C52.983 49.2605 49.6637 46.7507 46.4253 43.6742C43.3488 40.5978 37.9244 39.0595 32.5001 39.0595C27.0757 39.0595 21.6514 40.5978 18.494 43.5123C15.1746 46.5888 11.8552 49.1796 9.10255 50.232C7.80719 50.7178 6.67374 50.9607 5.78318 50.6368C4.97358 50.394 4.32589 49.7463 3.84013 48.6128C3.19245 47.0746 2.86861 44.5648 3.03053 40.8406C3.19245 37.3593 3.75917 33.3923 4.7307 29.6681C5.62126 26.1868 6.7547 22.9484 8.13103 20.5196C12.5838 12.5045 17.7653 13.7999 23.9183 15.4191C26.4281 16.0668 29.0188 16.7145 31.8524 16.9573C31.9334 16.9573 31.9334 16.9573 32.0143 16.9573H32.9049C32.9859 16.9573 32.9859 16.9573 33.0668 16.9573C35.9814 16.7145 38.5721 16.0668 41.0819 15.4191C47.2349 13.8809 52.4163 12.5045 56.8691 20.5196C58.2455 22.9484 59.3789 26.1059 60.2695 29.6681C61.16 33.3923 61.8077 37.2784 61.9696 40.8406C62.1316 44.5648 61.8077 47.0746 61.0791 48.7747Z" fill="black"/>
<path d="M25.0518 24.8914C24.2422 24.1628 23.2707 23.5961 22.1372 23.5151C22.0563 22.4626 21.5705 21.4101 20.8419 20.6815L20.7609 20.6005C19.8703 19.71 18.7369 19.2242 17.4415 19.2242C16.1462 19.2242 14.9317 19.7909 14.1221 20.6005C13.3935 21.3292 12.8268 22.3817 12.7458 23.5151C11.6124 23.5961 10.6409 24.0818 9.83125 24.8105L9.75029 24.8914C8.85972 25.782 8.37396 26.9154 8.37396 28.2108C8.37396 29.5062 8.94068 30.7206 9.75029 31.5302C10.5599 32.3398 11.5314 32.8255 12.7458 32.9065C12.8268 34.04 13.3125 35.0924 14.1221 35.8211C15.0127 36.7116 16.1462 37.1974 17.4415 37.1974C18.7369 37.1974 19.9513 36.6307 20.7609 35.8211C21.4895 35.0115 22.0563 34.04 22.1372 32.9065C23.2707 32.8255 24.3231 32.3398 25.0518 31.5302C25.9424 30.6396 26.4281 29.5062 26.4281 28.2108C26.4281 26.9154 25.8614 25.701 25.0518 24.8914ZM23.0278 29.4252C22.7039 29.7491 22.2991 29.911 21.8134 29.911H20.6799C19.8703 29.911 19.1417 30.5587 19.1417 31.4492V32.5017C19.1417 32.9875 18.9798 33.3923 18.6559 33.7161C18.3321 34.04 17.9273 34.2019 17.4415 34.2019C16.9558 34.2019 16.551 34.04 16.2271 33.7161C15.9033 33.3923 15.7414 32.9875 15.7414 32.5017V31.3683C15.7414 30.5587 15.0937 29.83 14.2031 29.83H13.0697C12.5839 29.83 12.1791 29.6681 11.8553 29.3443C11.6124 29.1014 11.3695 28.6966 11.3695 28.2108C11.3695 27.725 11.5314 27.3202 11.8553 26.9964C11.8553 26.9964 11.8553 26.9964 11.9362 26.9154C12.2601 26.6726 12.6649 26.5106 13.0697 26.5106H14.2031C15.0127 26.5106 15.7414 25.863 15.7414 24.9724V23.839C15.7414 23.3532 15.9033 22.9484 16.2271 22.6245C16.551 22.3007 16.9558 22.1388 17.4415 22.1388C17.9273 22.1388 18.3321 22.3007 18.6559 22.6245C18.6559 22.6245 18.6559 22.6245 18.7369 22.7055C18.9798 23.0293 19.1417 23.4341 19.1417 23.839V24.9724C19.1417 25.782 19.7894 26.5106 20.6799 26.5106H21.8134C22.2991 26.5106 22.7039 26.6726 23.0278 26.9964C23.3516 27.3202 23.5135 27.725 23.5135 28.2108C23.5135 28.6966 23.3516 29.1014 23.0278 29.4252Z" fill="black"/>
<path d="M46.5872 25.2963C48.1522 25.2963 49.4208 24.0276 49.4208 22.4626C49.4208 20.8977 48.1522 19.629 46.5872 19.629C45.0223 19.629 43.7536 20.8977 43.7536 22.4626C43.7536 24.0276 45.0223 25.2963 46.5872 25.2963Z" fill="black"/>
<path d="M46.5872 36.7926C48.1522 36.7926 49.4208 35.524 49.4208 33.959C49.4208 32.394 48.1522 31.1254 46.5872 31.1254C45.0223 31.1254 43.7536 32.394 43.7536 33.959C43.7536 35.524 45.0223 36.7926 46.5872 36.7926Z" fill="black"/>
<path d="M40.839 31.0445C42.4039 31.0445 43.6726 29.7758 43.6726 28.2108C43.6726 26.6459 42.4039 25.3772 40.839 25.3772C39.274 25.3772 38.0054 26.6459 38.0054 28.2108C38.0054 29.7758 39.274 31.0445 40.839 31.0445Z" fill="black"/>
<path d="M52.3354 31.0445C53.9003 31.0445 55.169 29.7758 55.169 28.2108C55.169 26.6459 53.9003 25.3772 52.3354 25.3772C50.7704 25.3772 49.5018 26.6459 49.5018 28.2108C49.5018 29.7758 50.7704 31.0445 52.3354 31.0445Z" fill="black"/>
</g>
<defs>
<clipPath id="clip0">
<rect width="65" height="65" fill="white"/>
</clipPath>
</defs>
</svg>
