<svg width="65" height="65" viewBox="0 0 65 65" fill="none" xmlns="http://www.w3.org/2000/svg">
<g clip-path="url(#clip0)">
<path d="M40.6404 54.7086C38.1904 54.7086 36.1971 56.702 36.1971 59.1521C36.1971 61.6022 38.1904 63.5956 40.6404 63.5956C43.0925 63.5956 45.0875 61.6022 45.0875 59.1521C45.0875 56.702 43.0927 54.7086 40.6404 54.7086ZM40.6404 61.0565C39.5904 61.0565 38.7361 60.2023 38.7361 59.1521C38.7361 58.102 39.5904 57.2477 40.6404 57.2477C41.6925 57.2477 42.5484 58.102 42.5484 59.1521C42.5484 60.2023 41.6926 61.0565 40.6404 61.0565Z" fill="black"/>
<path d="M48.2018 11.5378C48.7968 11.9083 49.5797 11.7262 49.9504 11.1309C50.7045 9.9195 52.1429 9.11601 53.4617 8.8409C53.3115 9.47034 53.2263 10.0853 53.2101 10.6676C53.1559 12.5788 54.1277 14.3936 55.6858 15.291C56.3393 15.6674 57.0451 15.8548 57.7601 15.8548C58.5657 15.8548 59.383 15.6166 60.1493 15.1426C61.1156 14.5459 61.7548 13.5549 61.949 12.352C62.1667 11.0035 61.7951 9.47935 61.0224 8.55704C60.0276 7.37498 58.4628 6.87249 57.0433 6.57466C57.918 4.77167 58.9998 3.27249 60.8688 2.77788C61.5466 2.59849 61.9505 1.90368 61.7712 1.22575C61.5918 0.547944 60.8972 0.143979 60.219 0.323364C57.1035 1.14792 55.5498 3.68229 54.4199 6.19825C52.1127 6.20282 49.2719 7.41649 47.7948 9.78924C47.4243 10.3843 47.6065 11.1672 48.2018 11.5378ZM56.0565 8.96875C57.1734 9.17809 58.5038 9.50779 59.078 10.1899C59.3394 10.5018 59.553 11.2624 59.4425 11.9473C59.3654 12.4247 59.1544 12.7729 58.8144 12.9829C58.1588 13.3884 57.5327 13.4248 56.953 13.0909C56.2046 12.6599 55.7206 11.715 55.7481 10.7391C55.7631 10.2001 55.87 9.59247 56.0565 8.96875Z" fill="black"/>
<path d="M45.1758 27.6069C45.5006 27.6069 45.8256 27.4828 46.0734 27.235C50.1745 23.1338 55.8026 21.6199 61.128 23.1848C61.8013 23.3828 62.5064 22.9976 62.704 22.3247C62.9017 21.6521 62.5167 20.9465 61.8441 20.7487C55.6129 18.9176 49.0463 20.6712 44.2781 25.4396C43.7823 25.9354 43.7823 26.7393 44.2781 27.235C44.526 27.4828 44.8509 27.6069 45.1758 27.6069Z" fill="black"/>
<path d="M4.58448 27.7984C7.03467 27.7984 9.02796 25.8034 9.02796 23.3512C9.02796 20.901 7.03467 18.9077 4.58448 18.9077C2.13428 18.9077 0.140991 20.9011 0.140991 23.3513C0.140991 25.8034 2.13428 27.7984 4.58448 27.7984ZM4.58448 21.4468C5.63451 21.4468 6.4889 22.301 6.4889 23.3512C6.4889 24.4034 5.63463 25.2593 4.58448 25.2593C3.53432 25.2593 2.68005 24.4034 2.68005 23.3512C2.68005 22.3012 3.53445 21.4468 4.58448 21.4468Z" fill="black"/>
<path d="M64.2041 51.2212L60.0605 48.9298L57.7691 44.7826C57.5456 44.3783 57.1202 44.1271 56.6582 44.127C56.6581 44.127 56.658 44.127 56.6579 44.127C56.196 44.127 55.7706 44.3779 55.547 44.782L53.2521 48.9295L49.1081 51.2212C48.7039 51.4447 48.4529 51.8701 48.4529 52.3321C48.4529 52.7941 48.7039 53.2195 49.1081 53.4431L53.2521 55.7346L55.547 59.8823C55.7706 60.2865 56.196 60.5372 56.6579 60.5372H56.6582C57.1202 60.5371 57.5456 60.286 57.7691 59.8816L60.0605 55.7345L64.2041 53.4431C64.6083 53.2195 64.8593 52.7941 64.8593 52.3321C64.8593 51.8701 64.6083 51.4447 64.2041 51.2212ZM58.5118 53.6895C58.3027 53.8052 58.1305 53.9774 58.0149 54.1865L56.6571 56.6441L55.2969 54.1859C55.1814 53.9771 55.0092 53.805 54.8004 53.6895L52.3459 52.3323L54.8004 50.9749C55.0092 50.8593 55.1813 50.6873 55.2969 50.4785L56.6571 48.0203L58.0149 50.4777C58.1304 50.6868 58.3027 50.8591 58.5118 50.9747L60.9663 52.3321L58.5118 53.6895Z" fill="black"/>
<path d="M4.56713 9.31607L8.71126 11.6077L11.0063 15.7521C11.23 16.156 11.6552 16.4067 12.1169 16.4067H12.1173C12.5791 16.4065 13.0044 16.1555 13.228 15.7514L15.5194 11.6076L19.6631 9.3162C20.0672 9.09276 20.3182 8.66747 20.3183 8.20561C20.3185 7.74376 20.0679 7.31834 19.6639 7.09464L15.5196 4.79958L13.2281 0.655327C13.0046 0.251108 12.5793 0.000249023 12.1174 0.00012207C12.1173 0.00012207 12.1172 0.00012207 12.117 0.00012207C11.6554 0.00012207 11.2301 0.250728 11.0064 0.654692L8.71101 4.7992L4.56637 7.09452C4.1624 7.31821 3.9118 7.74363 3.91193 8.20548C3.91205 8.66721 4.16291 9.09263 4.56713 9.31607ZM10.2601 6.84378C10.4685 6.72838 10.6402 6.55662 10.7556 6.34816L12.116 3.89149L13.474 6.3474C13.5894 6.55624 13.7613 6.72813 13.9699 6.84366L16.4266 8.20409L13.9705 9.56223C13.7616 9.67776 13.5894 9.84991 13.4739 10.0589L12.116 12.515L10.7556 10.0584C10.6401 9.84965 10.468 9.67776 10.2593 9.56236L7.80342 8.20434L10.2601 6.84378Z" fill="black"/>
<path d="M25.3815 39.1875C24.7544 38.8739 23.9918 39.1281 23.6782 39.7552C23.3646 40.3824 23.6188 41.145 24.2459 41.4586L24.2532 41.4621C24.435 41.553 24.6279 41.5961 24.8177 41.5961C25.2829 41.5961 25.7302 41.3378 25.9528 40.8925C26.2664 40.2653 26.0087 39.501 25.3815 39.1875Z" fill="black"/>
<path d="M48.0844 38.3383C47.4304 37.1467 46.6406 35.8975 45.7369 34.6174C48.7968 33.3903 52.158 33.1972 55.4063 34.1538C56.0784 34.3516 56.7846 33.9673 56.9827 33.2947C57.1809 32.6221 56.7962 31.9163 56.1236 31.7182C52.0888 30.5299 47.9125 30.8491 44.1738 32.5174C42.5861 30.4871 40.7486 28.4158 38.7379 26.401C40.4752 23.7743 41.7553 20.909 42.5107 17.9187C43.6851 13.2691 43.5921 8.38347 42.2417 3.7898C42.0437 3.11707 41.3377 2.73202 40.6655 2.92982C39.9928 3.12761 39.6078 3.83321 39.8055 4.50594C41.8291 11.3895 40.7232 18.5769 36.8821 24.6057C35.4668 23.2838 34.0379 22.0559 32.628 20.9478C34.2885 17.2147 34.6059 13.0457 33.4218 9.01671C33.2242 8.34399 32.5186 7.95906 31.8458 8.1566C31.1731 8.35427 30.7881 9.05988 30.9857 9.7326C31.938 12.9732 31.7477 16.3254 30.5298 19.3779C29.2105 18.4411 27.9234 17.6241 26.697 16.9509C22.4936 14.6435 19.4216 14.2746 17.8126 15.8836C17.1075 16.5887 16.7822 17.575 16.8333 18.8142L0.221437 63.2861C0.0473846 63.7519 0.161389 64.2765 0.513049 64.6281C0.755529 64.8706 1.08002 65 1.41099 65C1.56003 65 1.71034 64.9737 1.85507 64.9196L46.5898 48.2049C47.6563 48.182 48.5177 47.856 49.1518 47.2229C50.7606 45.6139 50.3917 42.5417 48.0844 38.3383ZM12.5063 37.6559C13.0035 37.8745 13.458 38.185 13.8499 38.5769C15.5692 40.2962 15.5692 43.094 13.849 44.8142C12.6701 45.9954 10.9598 46.3902 9.42249 45.9107L12.5063 37.6559ZM12.6367 58.1807C12.5877 56.971 13.0393 55.765 13.9187 54.8877C14.7479 54.0584 15.8508 53.6018 17.0242 53.6018C18.1976 53.6018 19.3005 54.0584 20.1297 54.8877C20.2477 55.0055 20.3579 55.1287 20.4604 55.2574L12.6367 58.1807ZM37.8597 48.7562C35.4827 47.5639 32.6472 45.6101 29.8121 43.2058C29.2775 42.7523 28.4763 42.8184 28.0226 43.353C27.5692 43.8877 27.6351 44.6888 28.1698 45.1424C30.4438 47.0707 32.669 48.6906 34.7296 49.9258L22.9134 54.3409C22.6345 53.891 22.3056 53.4726 21.9252 53.0923C20.6163 51.7834 18.8758 51.0627 17.0243 51.0627C15.1727 51.0627 13.4322 51.7835 12.1244 53.0913C10.5407 54.6715 9.83598 56.9279 10.1821 59.0979L3.57414 61.5669L8.53319 48.2912C9.24958 48.531 9.9915 48.6498 10.7306 48.6498C12.527 48.6498 14.3047 47.952 15.6454 46.6087C18.3547 43.8994 18.3547 39.4909 15.6454 36.7815C14.9934 36.1296 14.2307 35.6218 13.3951 35.2754L15.2128 30.4095C16.4493 32.4709 18.0686 34.6965 19.9943 36.97C20.2454 37.2664 20.6034 37.419 20.9637 37.419C21.2536 37.419 21.545 37.3203 21.7835 37.1183C22.3185 36.6651 22.3849 35.864 21.9317 35.329C19.5315 32.4952 17.5778 29.6595 16.3816 27.2804L17.9862 22.9847C18.2418 23.5541 18.5385 24.1484 18.8783 24.7679C20.9109 28.4725 24.2478 32.7305 28.2745 36.7575C32.302 40.7851 36.56 44.1227 40.2641 46.1558C40.948 46.5312 41.6008 46.8533 42.2234 47.1259L37.8597 48.7562ZM47.3456 45.4156C47.2677 45.4934 46.8817 45.7059 46.1874 45.6448C45.2492 45.5777 43.7349 45.1459 41.4934 43.9157C37.9953 41.9958 33.9425 38.812 30.0812 34.9507C26.2208 31.0902 23.0377 27.0373 21.1183 23.5388C20.0101 21.5188 19.5506 20.0903 19.4216 19.1416C19.4216 19.1416 19.2113 18.0977 19.6196 17.6901C19.8347 17.4756 20.318 17.4538 20.5169 17.4513C21.4236 17.4404 23.0075 17.8401 25.4677 19.1906C26.7106 19.8729 28.0238 20.7154 29.3733 21.6904C28.7048 22.7888 27.8916 23.8282 26.9359 24.7839C26.4402 25.2797 26.4402 26.0835 26.9359 26.5793C27.1839 26.8272 27.5087 26.9511 27.8336 26.9511C28.1585 26.9511 28.4835 26.8271 28.7313 26.5793C29.7675 25.5431 30.6609 24.4218 31.4065 23.2377C32.7265 24.2927 34.0649 25.458 35.3919 26.7105C34.7119 27.5789 33.971 28.4171 33.1691 29.219C32.6733 29.7148 32.6733 30.5186 33.1691 31.0144C33.417 31.2623 33.7419 31.3862 34.0668 31.3862C34.3916 31.3862 34.7166 31.2622 34.9644 31.0144C35.7676 30.2113 36.5189 29.3696 37.216 28.4947C38.9303 30.2318 40.5044 32.0031 41.8862 33.7412C40.7068 34.4854 39.5896 35.3762 38.5567 36.409C38.061 36.9048 38.061 37.7086 38.5567 38.2044C38.8046 38.4523 39.1295 38.5762 39.4544 38.5762C39.7793 38.5762 40.1043 38.4522 40.3521 38.2044C41.3028 37.2536 42.3361 36.4439 43.4275 35.7773C44.3675 37.0864 45.1811 38.3603 45.8439 39.568C47.9045 43.3207 47.7268 45.0345 47.3456 45.4156Z" fill="black"/>
</g>
<defs>
<clipPath id="clip0">
<rect width="65" height="65" fill="white"/>
</clipPath>
</defs>
</svg>
