<svg width="65" height="65" viewBox="0 0 65 65" fill="none" xmlns="http://www.w3.org/2000/svg">
<path d="M63.0957 53.4473H57.2559V9.64844C57.2559 8.59676 56.4032 7.74414 55.3516 7.74414H11.5527V1.9043C11.5527 0.852617 10.7001 0 9.64844 0C8.59676 0 7.74414 0.852617 7.74414 1.9043V7.74414H1.9043C0.852617 7.74414 0 8.59676 0 9.64844C0 10.7001 0.852617 11.5527 1.9043 11.5527H7.74414V55.3516C7.74414 56.4032 8.59676 57.2559 9.64844 57.2559H53.4473V63.0957C53.4473 64.1474 54.2999 65 55.3516 65C56.4032 65 57.2559 64.1474 57.2559 63.0957V57.2559H63.0957C64.1474 57.2559 65 56.4032 65 55.3516C65 54.2999 64.1474 53.4473 63.0957 53.4473ZM53.4473 11.5527V46.9456L41.4636 34.962C40.7201 34.2183 39.5143 34.2183 38.7706 34.962L34.4043 39.3284L26.2293 31.1534C25.4857 30.4097 24.2799 30.4097 23.5362 31.1534L11.5527 43.137V11.5527H53.4473ZM11.5527 53.4473V48.5231L24.8828 35.1931L38.7707 49.0808C39.5143 49.8245 40.7201 49.8247 41.4638 49.0808C42.2075 48.3371 42.2075 47.1315 41.4638 46.3878L37.0974 42.0215L40.1172 39.0017L53.4473 52.3317V53.4473H11.5527Z" fill="black"/>
<path d="M42.0215 30.5957C46.2216 30.5957 49.6387 27.1786 49.6387 22.9785C49.6387 18.7784 46.2216 15.3613 42.0215 15.3613C37.8214 15.3613 34.4043 18.7784 34.4043 22.9785C34.4043 27.1786 37.8214 30.5957 42.0215 30.5957ZM42.0215 19.1699C44.1215 19.1699 45.8301 20.8785 45.8301 22.9785C45.8301 25.0786 44.1215 26.7871 42.0215 26.7871C39.9214 26.7871 38.2129 25.0786 38.2129 22.9785C38.2129 20.8785 39.9214 19.1699 42.0215 19.1699Z" fill="black"/>
</svg>
