<svg width="65" height="65" viewBox="0 0 65 65" fill="none" xmlns="http://www.w3.org/2000/svg">
<path d="M20.8956 20.6651L9.87187 31.6888C9.12818 32.4325 9.12818 33.6381 9.87187 34.3818L19.825 44.335C20.5686 45.0787 21.7744 45.0788 22.5181 44.335C23.2617 43.5913 23.2617 42.3856 22.5181 41.6419L13.9115 33.0352L23.5887 23.358C24.3323 22.6143 24.3323 21.4086 23.5887 20.6649C22.845 19.9212 21.6392 19.9212 20.8956 20.6651Z" fill="black"/>
<path d="M45.175 20.665C44.4314 19.9213 43.2256 19.9213 42.4819 20.665C41.7383 21.4087 41.7383 22.6144 42.4819 23.3581L51.0885 31.9648L41.4113 41.642C40.6677 42.3857 40.6677 43.5914 41.4113 44.3351C42.1549 45.0788 43.3607 45.0789 44.1044 44.3351L55.1281 33.3113C55.8718 32.5677 55.8718 31.362 55.1281 30.6183L45.175 20.665Z" fill="black"/>
<path d="M38.1353 16.4478C37.1433 16.0974 36.0558 16.6177 35.7056 17.6093L25.6359 46.1226C25.2858 47.1143 25.8056 48.2021 26.7974 48.5523C27.7888 48.9025 28.8769 48.3827 29.2271 47.3908L39.2968 18.8776C39.647 17.8858 39.127 16.7979 38.1353 16.4478Z" fill="black"/>
<path d="M55.8005 8.7218H9.19953C4.12686 8.7218 0 12.8487 0 17.9213V47.0787C0 52.1513 4.12686 56.2782 9.19953 56.2782H55.8005C60.8731 56.2782 65 52.1513 65 47.0787V17.9213C65 12.8487 60.8731 8.7218 55.8005 8.7218ZM61.1914 47.0787C61.1914 50.0513 58.7731 52.4696 55.8005 52.4696H9.19953C6.22692 52.4696 3.80859 50.0513 3.80859 47.0787V17.9213C3.80859 14.9487 6.22692 12.5304 9.19953 12.5304H55.8005C58.7731 12.5304 61.1914 14.9487 61.1914 17.9213V47.0787Z" fill="black"/>
</svg>
