<svg width="65" height="65" viewBox="0 0 65 65" fill="none" xmlns="http://www.w3.org/2000/svg">
<g clip-path="url(#clip0)">
<path d="M50.106 17.7468C49.8299 17.2992 49.2433 17.16 48.7959 17.4359C48.3484 17.7117 48.2092 18.2983 48.4851 18.7459C50.1328 21.4188 51.0737 24.4627 51.2354 27.6016H46.4826C46.0403 25.7338 44.3547 24.337 42.3581 24.337C40.3611 24.337 38.675 25.7338 38.2327 27.6016H33.4522V22.0035C33.4522 21.4777 33.026 21.0514 32.5001 21.0514C31.2133 21.0514 30.1666 20.0045 30.1666 18.7179C30.1666 17.4312 31.2133 16.3843 32.5001 16.3843C33.026 16.3843 33.4522 15.958 33.4522 15.4322V9.83579C38.2535 10.0724 42.6971 12.0964 46.0505 15.5956C46.4953 15.977 46.944 15.9865 47.3965 15.6243C47.7761 15.2605 47.7891 14.6578 47.4252 14.2782C43.4917 10.1736 38.1962 7.91187 32.5132 7.90844C32.5088 7.90844 32.5046 7.90781 32.5001 7.90781C32.4958 7.90781 32.4917 7.90844 32.4874 7.90844C27.465 7.91149 22.6298 9.7256 18.8715 13.0174C18.4759 13.3639 18.436 13.9654 18.7826 14.3609C19.129 14.7565 19.7306 14.7963 20.126 14.4499C23.3022 11.6678 27.3269 10.0494 31.5481 9.83719V14.5881C29.6683 15.0213 28.2624 16.7086 28.2624 18.718C28.2624 20.7273 29.6683 22.4147 31.5481 22.8479V27.6019H25.9288C25.4028 27.6019 24.9767 28.0281 24.9767 28.5539V28.5761C24.9767 29.8629 23.9294 30.9097 22.642 30.9097C21.3552 30.9097 20.3084 29.8628 20.3084 28.5761V28.5539C20.3084 28.0281 19.8823 27.6019 19.3564 27.6019H13.7622C13.9499 23.8712 15.2126 20.3456 17.4438 17.3534C17.7581 16.9318 17.6711 16.3353 17.2497 16.021C16.8283 15.7068 16.2316 15.7936 15.9173 16.2151C13.2502 19.7918 11.8379 24.0583 11.8327 28.5542C11.6424 36.4065 16.6533 43.9408 23.6634 47.2625C24.4608 47.6404 24.9762 48.4621 24.9762 49.356V51.2538C23.0217 51.2538 21.6896 52.3008 21.6896 54.1772C21.6896 56.0523 22.9793 57.1024 24.9762 57.1007V61.4332C24.9762 63.318 26.6672 65.0003 28.5432 65.0003H36.4568C38.3329 65.0003 40.0238 63.3185 40.0238 61.4332V57.1007C42.2534 57.1025 43.3112 55.9176 43.3104 54.1772C43.3095 52.3628 42.1689 51.2538 40.0238 51.2538V49.356C40.0238 48.462 40.5421 47.6388 41.3445 47.2586C48.5562 43.8388 53.0395 36.4819 53.1673 28.5533C53.1635 24.7261 52.1048 20.9894 50.106 17.7468ZM24.4787 45.5414C18.2345 42.5827 14.1074 36.3574 13.763 29.5056H18.507C18.932 31.3965 20.6246 32.8134 22.6419 32.8134C24.6597 32.8134 26.3527 31.3965 26.7779 29.5056H31.5478V35.147C31.5478 35.6728 31.974 36.099 32.4999 36.099C33.7867 36.099 34.8334 37.1459 34.8334 38.4326C34.8334 39.7193 33.7867 40.7662 32.4999 40.7662C31.974 40.7662 31.5478 41.1924 31.5478 41.7182V51.2533H26.8802V49.3555C26.8803 47.7299 25.9376 46.2328 24.4787 45.5414ZM36.4568 63.0959H28.5432C27.3332 63.0959 26.8208 62.0188 26.8803 61.0647H38.1196C38.1217 62.0802 37.7998 63.0959 36.4568 63.0959ZM40.3856 55.1963H34.5006C33.9747 55.1963 33.5485 55.6226 33.5485 56.1484C33.5485 56.1506 33.5488 56.1526 33.5488 56.1547C33.5488 56.1569 33.5485 56.1589 33.5485 56.1611C33.5485 56.6869 33.9747 57.1131 34.5006 57.1131H38.1197V59.1606H26.8804V57.1131H30.3523C30.8782 57.1131 31.3043 56.6869 31.3043 56.1611C31.3043 56.1589 31.3041 56.1569 31.3041 56.1547C31.3041 56.1526 31.3043 56.1506 31.3043 56.1484C31.3043 55.6226 30.8782 55.1963 30.3523 55.1963H24.6145C23.1065 55.2192 23.0642 53.1577 24.6145 53.1577H40.3857C41.7032 53.1577 41.8936 55.198 40.3856 55.1963ZM40.5288 45.5376C39.0653 46.2311 38.1196 47.7299 38.1196 49.3558V51.2535H33.4519V42.5626C35.3317 42.1294 36.7375 40.4421 36.7375 38.4327C36.7375 36.4234 35.3317 34.7361 33.4519 34.3028V29.5056H39.0712C39.5946 29.5056 40.02 29.083 40.0233 28.5596C40.0314 27.2812 41.0788 26.241 42.358 26.241C43.6365 26.241 44.6834 27.2812 44.6917 28.5596C44.695 29.083 45.1204 29.5056 45.6437 29.5056H51.2369C50.8921 36.3552 46.7681 42.579 40.5288 45.5376Z" fill="black"/>
<path d="M32.5 5.84729C31.9741 5.84729 31.5479 5.42102 31.5479 4.89523V0.952059C31.5479 0.426269 31.9741 0 32.5 0C33.0259 0 33.452 0.426269 33.452 0.952059V4.89523C33.452 5.42102 33.0259 5.84729 32.5 5.84729Z" fill="black"/>
<path d="M45.8215 9.41676C45.3649 9.15615 45.2101 8.57159 45.473 8.11625L47.4445 4.7014C47.7073 4.24606 48.2893 4.0898 48.7451 4.35295C49.2004 4.61584 49.3564 5.19812 49.0935 5.65346L47.122 9.06831C46.9458 9.3736 46.3366 9.71076 45.8215 9.41676Z" fill="black"/>
<path d="M55.5736 19.1686C55.3107 18.7133 55.4667 18.131 55.922 17.8681L59.3367 15.8966C59.7918 15.6337 60.3745 15.7896 60.6373 16.245C60.9002 16.7004 60.7441 17.2827 60.2888 17.5456L56.8741 19.5171C56.3332 19.8343 55.7498 19.4742 55.5736 19.1686Z" fill="black"/>
<path d="M4.36272 48.7353C4.11899 48.2694 4.25584 47.6977 4.71117 47.4348L8.12589 45.4632C8.58098 45.2004 9.16338 45.3562 9.42641 45.8117C9.6893 46.267 9.53329 46.8493 9.07795 47.1122L5.66323 49.0837C5.11243 49.3799 4.60467 49.1979 4.36272 48.7353Z" fill="black"/>
<path d="M17.8779 9.06828L15.9064 5.65343C15.6435 5.19809 15.7995 4.61582 16.2548 4.35292C16.7099 4.0899 17.2925 4.24591 17.5554 4.70137L19.5269 8.11622C19.7898 8.57156 19.6227 9.13568 19.1784 9.41673C18.6634 9.74246 18.0542 9.3737 17.8779 9.06828Z" fill="black"/>
<path d="M8.12587 19.5172L4.71115 17.5457C4.25581 17.2828 4.0998 16.7005 4.36269 16.2452C4.62546 15.7897 5.20749 15.6337 5.66321 15.8967L9.07793 17.8683C9.53327 18.1312 9.75732 18.7602 9.42638 19.1688C9.01585 19.6757 8.60329 19.7391 8.12587 19.5172Z" fill="black"/>
<path d="M59.3367 49.0839L55.922 47.1124C55.4667 46.8495 55.3107 46.2672 55.5736 45.8119C55.8363 45.3564 56.4189 45.2005 56.8741 45.4634L60.2888 47.4349C60.7441 47.6978 60.9211 48.2928 60.6373 48.7354C60.3318 49.2117 59.8875 49.4117 59.3367 49.0839Z" fill="black"/>
<path d="M4.90487 33.4423H0.961825C0.435907 33.4423 0.00976562 33.016 0.00976562 32.4902C0.00976562 31.9644 0.435907 31.5382 0.961825 31.5382H4.905C5.43092 31.5382 5.85706 31.9644 5.85706 32.4902C5.85706 33.016 5.43079 33.4423 4.90487 33.4423Z" fill="black"/>
<path d="M64.0382 33.4423H60.095C59.5691 33.4423 59.1429 33.016 59.1429 32.4902C59.1429 31.9644 59.5691 31.5382 60.095 31.5382H64.0382C64.5641 31.5382 64.9902 31.9644 64.9902 32.4902C64.9902 33.016 64.5641 33.4423 64.0382 33.4423Z" fill="black"/>
</g>
<defs>
<clipPath id="clip0">
<rect width="65" height="65" fill="white"/>
</clipPath>
</defs>
</svg>
