<svg width="65" height="65" viewBox="0 0 65 65" fill="none" xmlns="http://www.w3.org/2000/svg">
<g clip-path="url(#clip0)">
<path d="M62.5356 23.1911L55.0392 22.0862C54.3946 20.6183 53.5767 19.1775 52.5611 17.7151L55.4129 10.4137C55.941 9.0325 55.3966 7.51052 54.1536 6.81446L43.3884 0.417685C42.1399 -0.340575 40.5177 -0.0346304 39.6131 1.13811L34.9414 7.2777C33.1323 7.08816 31.8648 7.08816 30.0558 7.2777L25.3815 1.12999C24.4985 -0.0155883 22.9305 -0.326992 21.6224 0.40956L10.8763 6.79555C9.65211 7.48069 9.0943 9.02171 9.5899 10.4218L12.4362 17.7042C11.4531 19.099 10.6244 20.5667 9.96084 22.0834L2.48881 23.1857C1.06979 23.3699 0 24.6239 0 26.0998V38.9069C0 40.3856 1.06979 41.6394 2.46444 41.8155L9.96084 42.9205C10.6054 44.3884 11.4233 45.8291 12.4389 47.2915L9.58711 54.593C9.059 55.9768 9.60336 57.4989 10.8464 58.1922L21.6522 64.6161C22.1127 64.8735 22.611 64.998 23.1011 64.998C23.9731 64.998 24.8209 64.6053 25.3896 63.866L30.0586 57.7264C31.4993 57.8834 33.5089 57.8834 34.947 57.7264L39.6213 63.8741C40.5015 65.017 42.0695 65.3311 43.3804 64.5972L46.4948 62.7448C47.1367 62.3629 47.3479 61.5316 46.966 60.8897C46.5842 60.2479 45.7528 60.0339 45.1109 60.4185L41.7717 62.2303L36.6343 55.4732C36.3418 55.0887 35.8705 54.8937 35.3831 54.9506C33.7419 55.1618 31.2665 55.1618 29.6253 54.9506C29.1405 54.8964 28.6666 55.0887 28.3741 55.4732L23.0119 62.2709L12.206 55.8469C12.1031 55.7874 12.0868 55.6574 12.1221 55.568L15.2365 47.5951C15.4045 47.1618 15.3422 46.677 15.0686 46.3033C13.8093 44.5727 12.8641 42.899 12.1817 41.1874C12.0029 40.7379 11.5967 40.4182 11.12 40.3479L2.86801 39.1318C2.85988 39.1318 2.72443 38.9044 2.7163 38.9044V26.0971L2.86801 25.8669L11.12 24.6509C11.5994 24.5804 12.0029 24.2609 12.1817 23.8114C12.8912 22.0294 13.858 20.3123 15.0605 18.7091C15.3394 18.3354 15.4072 17.8424 15.2365 17.4065L12.1356 9.47669C12.0976 9.36294 12.1329 9.19778 12.2385 9.13812L23.2393 2.77384L28.3768 9.53089C28.6693 9.91275 29.1405 10.1077 29.628 10.0535C31.8812 9.76372 33.1324 9.76372 35.3857 10.0535C35.8759 10.1104 36.3444 9.91542 36.6369 9.53089L41.9992 2.73601L52.8023 9.15716C52.9053 9.2167 52.9242 9.34669 52.889 9.43606L49.7746 17.409C49.6067 17.8423 49.669 18.3271 49.9426 18.7008C51.2019 20.4314 52.147 22.1051 52.8295 23.8167C53.0082 24.2662 53.4145 24.5859 53.8912 24.6562L62.1432 25.8723C62.1513 25.8749 62.2867 26.1024 62.2949 26.1024V38.9096L62.1432 39.1371L56.8513 39.917C56.1093 40.0253 55.5975 40.7132 55.7084 41.4526C55.8167 42.1919 56.4992 42.7119 57.244 42.5955L62.5088 41.8182C63.9279 41.6368 65.0004 40.3856 65.0004 38.9069V26.0998C64.9973 24.6239 63.9303 23.3699 62.5356 23.1911Z" fill="black"/>
<path d="M48.2822 38.2402C46.771 36.7291 45.9478 34.8116 46.029 32.9781C46.1726 29.6362 44.7751 26.4459 41.7554 23.2259C39.1718 20.4716 35.7025 18.909 32.3281 18.9577C29.3194 18.9957 26.4513 20.0464 24.0329 21.999C23.689 22.2779 23.5021 22.7059 23.5318 23.1473C23.5643 23.5887 23.808 23.9868 24.1872 24.2116L32.4636 29.1758C32.2172 31.6646 30.7466 33.8475 28.4961 35.012L21.0864 30.5651C20.6775 30.3187 20.1088 30.3376 19.6863 30.5678C19.2746 30.7926 19.0093 31.2123 18.9821 31.6782C18.7601 35.4535 20.0627 39.0418 22.6463 41.7826C25.1975 44.4854 28.7886 46.0345 32.5016 46.0345C33.4982 46.0345 34.4976 45.9045 35.5944 45.6256L52.881 62.9122C54.2216 64.2554 56.0036 64.9921 57.9021 64.9921C61.8155 64.9921 64.9976 61.8072 64.9976 57.8938C64.9976 55.9981 64.2582 54.216 62.9176 52.8754L48.2822 38.2402ZM57.9018 62.2865H57.8963C56.7237 62.2865 55.6214 61.8288 54.7927 61.0001L36.9483 43.1557C36.6883 42.8983 36.3444 42.7602 35.9896 42.7602C35.8569 42.7602 35.7269 42.7765 35.6051 42.8144C34.4459 43.1638 33.4628 43.3263 32.5041 43.3263C29.4872 43.3263 26.6895 42.1184 24.6205 39.9247C23.0876 38.2998 22.1208 36.3011 21.7931 34.1481L27.743 37.7175C28.1411 37.9558 28.6286 37.972 29.0457 37.7689L29.617 37.4845C33.0646 35.7594 35.2095 32.2902 35.2095 28.4336C35.2095 27.957 34.9576 27.5156 34.5514 27.2718L27.4017 22.982C28.9372 22.137 30.6217 21.6847 32.3632 21.6631C34.9767 21.6252 37.7173 22.8737 39.781 25.0755C42.3104 27.7755 43.4371 30.2482 43.3234 32.8589C43.2096 35.448 44.32 38.1075 46.3674 40.1549L61.0026 54.7929C61.834 55.6216 62.289 56.7239 62.289 57.8991C62.2918 60.3176 60.3256 62.2865 57.9018 62.2865Z" fill="black"/>
</g>
<defs>
<clipPath id="clip0">
<rect width="65" height="65" fill="white"/>
</clipPath>
</defs>
</svg>
