<svg width="99" height="99" viewBox="0 0 99 99" fill="none" xmlns="http://www.w3.org/2000/svg">
<path d="M45.4395 84.2273C26.2969 84.2273 10.7121 68.6426 10.7121 49.5C10.7121 30.3574 26.2969 14.7727 45.4395 14.7727C64.582 14.7727 80.1475 30.3574 80.1475 49.5C80.1475 68.6426 64.582 84.2273 45.4395 84.2273ZM45.4395 20.4187C29.3906 20.4187 16.3582 33.4705 16.3582 49.5C16.3582 65.5295 29.41 78.5812 45.4395 78.5812C61.4689 78.5812 74.5207 65.5295 74.5207 49.5C74.5207 33.4705 61.4689 20.4187 45.4395 20.4187Z" fill="url(#paint0_linear)"/>
<path d="M22.6617 67.5211L16.9189 69.2807C19.5293 73.0512 22.8744 76.2609 26.7416 78.7359L31.0729 74.7527C27.8244 72.9158 24.982 70.4408 22.6617 67.5211Z" fill="#58595B"/>
<path d="M0 43.1385L14.0572 55.7262L99 23.6672L0 43.1385Z" fill="#3AEE00"/>
<path d="M99 23.6672L14.0572 55.7262L12.665 76.1256L18.6592 59.8447L99 23.6672Z" fill="#0FB400"/>
<path d="M12.665 76.1256L27.0703 67.3664L18.6592 59.8447L12.665 76.1256Z" fill="#0D9F18"/>
<path d="M99 23.6672L27.0703 67.3664L42.8484 81.501L99 23.6672Z" fill="#3AEE00"/>
<path d="M18.6592 59.8447L27.0703 67.3664L99 23.6672L18.6592 59.8447Z" fill="#00D91A"/>
<defs>
<linearGradient id="paint0_linear" x1="69.9755" y1="24.9595" x2="20.8947" y2="74.0403" gradientUnits="userSpaceOnUse">
<stop stop-color="#BBBDBF"/>
<stop offset="1" stop-color="#797B7D"/>
</linearGradient>
</defs>
</svg>
